<svg xmlns="http://www.w3.org/2000/svg" width="32" height="32" fill="none" viewBox="0 0 32 32"><path fill="#FF4282" d="M1.25 10C.56 10 0 9.44 0 8.75v-7.5C0 .56.56 0 1.25 0h7.5a1.25 1.25 0 110 2.5H2.5v6.25c0 .69-.56 1.25-1.25 1.25zM32 8.75v-7.5C32 .56 31.44 0 30.75 0h-7.5a1.25 1.25 0 100 2.5h6.25v6.25a1.25 1.25 0 102.5 0zm-22 22c0-.69-.56-1.25-1.25-1.25H2.5v-6.25a1.25 1.25 0 10-2.5 0v7.5C0 31.44.56 32 1.25 32h7.5c.69 0 1.25-.56 1.25-1.25zm22 0v-7.5a1.25 1.25 0 10-2.5 0v6.25h-6.25a1.25 1.25 0 100 2.5h7.5c.69 0 1.25-.56 1.25-1.25z"/><path fill="url(#paint0_linear)" d="M11.5 23.85v-9.9A4.47 4.47 0 0116 9.52c2.48 0 4.5 1.99 4.5 4.43v4.44c0 1.13-.93 2.05-2.08 2.05a2.07 2.07 0 01-2.07-2.05v-2.73c0-.75-.62-1.37-1.39-1.37-.76 0-1.38.62-1.38 1.37v2.73a4.82 4.82 0 004.84 4.77 4.82 4.82 0 004.85-4.77v-4.44A7.23 7.23 0 0016 6.8a7.23 7.23 0 00-7.27 7.16v9.9c0 .75.62 1.36 1.38 1.36.77 0 1.39-.6 1.39-1.36z"/><defs><linearGradient id="paint0_linear" x1="2.51" x2="24.11" y1="16" y2="16" gradientUnits="userSpaceOnUse"><stop stop-color="#11B4F5"/><stop offset=".27" stop-color="#644AD4"/><stop offset=".61" stop-color="#E340A0"/><stop offset=".76" stop-color="#FF4282"/><stop offset=".93" stop-color="#F14B66"/></linearGradient></defs></svg>