<svg xmlns="http://www.w3.org/2000/svg" width="19" height="20" fill="none" viewBox="0 0 19 20"><path fill="currentColor" fill-rule="evenodd" d="M9.46 18.5c4.44 0 8.04-3.8 8.04-8.5s-3.6-8.5-8.04-8.5c-4.44 0-8.04 3.8-8.04 8.5s3.6 8.5 8.04 8.5zM3.76 7.9A6.4 6.4 0 015.7 5.03c.26.43.73.72 1.26.72.83 0 1.5.71 1.5 1.6v.52c0 1.18.9 2.13 2.02 2.13 1.1 0 2-.95 2-2.13 0-1 .66-1.83 1.54-2.06a6.56 6.56 0 011.4 5.25h-.92c-1.11 0-2.01.95-2.01 2.13v2.33c-.89.54-1.92.86-3.02.86v-2.13c0-1.17-.9-2.12-2-2.12A2.07 2.07 0 015.43 10a2.1 2.1 0 00-1.68-2.1z" clip-rule="evenodd"/><path fill="var(--icon-fill-light)" fill-rule="evenodd" d="M6.01 5.03A6.39 6.39 0 003.98 7.9c1 .17 1.77 1.05 1.77 2.1 0 1.17.95 2.13 2.12 2.13 1.18 0 2.13.95 2.13 2.12v2.12c1.16 0 2.25-.3 3.19-.85V13.2c0-1.18.95-2.13 2.12-2.13h.98a6.42 6.42 0 00-1.48-5.25 2.13 2.13 0 00-1.62 2.06 2.13 2.13 0 11-4.25 0v-.53c0-.88-.72-1.59-1.6-1.59a1.6 1.6 0 01-1.33-.72z" clip-rule="evenodd"/></svg>