<svg xmlns="http://www.w3.org/2000/svg" width="20" height="20" fill="none" viewBox="0 0 20 20"><path fill="var(--icon-fill-light)" fill-rule="evenodd" d="M3.8 6.8A2.5 2.5 0 003 8.64V15.4c0 .56 0 .84.06 1.07a2 2 0 001.47 1.47c.23.06.51.06 1.07.06h8.8c.56 0 .84 0 1.07-.06a2 2 0 001.47-1.47c.06-.23.06-.51.06-1.07V8.64c0-.7-.3-1.37-.8-1.84l-4.5-4.14a2.5 2.5 0 00-3.4 0L3.8 6.8z" clip-rule="evenodd"/><path fill="currentColor" d="M6.89 13.07c0-1.04 0-1.56.19-1.96a2 2 0 01.96-.97c.4-.18.92-.18 1.96-.18s1.55 0 1.96.18a2 2 0 01.96.97c.2.4.2.92.2 1.96V18H6.88v-4.93z"/></svg>