<svg xmlns="http://www.w3.org/2000/svg" width="145" height="32" fill="none" viewBox="0 0 145 32"><path fill="#FF4282" d="M1.25 10C.56 10 0 9.44 0 8.75v-7.5C0 .56.56 0 1.25 0h7.5a1.25 1.25 0 110 2.5H2.5v6.25c0 .69-.56 1.25-1.25 1.25zM32 8.75v-7.5C32 .56 31.44 0 30.75 0h-7.5a1.25 1.25 0 100 2.5h6.25v6.25a1.25 1.25 0 102.5 0zm-22 22c0-.69-.56-1.25-1.25-1.25H2.5v-6.25a1.25 1.25 0 10-2.5 0v7.5C0 31.44.56 32 1.25 32h7.5c.69 0 1.25-.56 1.25-1.25zm22 0v-7.5a1.25 1.25 0 10-2.5 0v6.25h-6.25a1.25 1.25 0 100 2.5h7.5c.69 0 1.25-.56 1.25-1.25z"/><path fill="url(#paint0_linear)" d="M11.5 23.85v-9.9A4.47 4.47 0 0116 9.52c2.48 0 4.5 1.99 4.5 4.43v4.44c0 1.13-.93 2.05-2.08 2.05a2.07 2.07 0 01-2.07-2.05v-2.73c0-.75-.62-1.37-1.39-1.37-.76 0-1.38.62-1.38 1.37v2.73a4.82 4.82 0 004.84 4.77 4.82 4.82 0 004.85-4.77v-4.44A7.23 7.23 0 0016 6.8a7.23 7.23 0 00-7.27 7.16v9.9c0 .75.62 1.36 1.38 1.36.77 0 1.39-.6 1.39-1.36z"/><path class="fill-current dark:text-gray-200" d="M44 24.34h3.38v-5.19h2.85c3.68 0 5.82-2.2 5.82-5.39 0-3.18-2.1-5.42-5.74-5.42H44v16zm3.38-7.9v-5.33h2.28c1.96 0 2.9 1.06 2.9 2.65 0 1.59-.94 2.68-2.88 2.68h-2.3zM58.62 24.34h3.33v-12h-3.33v12zm1.67-13.55c1 0 1.8-.75 1.8-1.68 0-.93-.8-1.68-1.8-1.68-.98 0-1.8.75-1.8 1.68 0 .93.82 1.68 1.8 1.68zM68.38 17.4c.01-1.54.93-2.45 2.28-2.45 1.33 0 2.14.87 2.13 2.34v7.05h3.33V16.7c0-2.8-1.64-4.52-4.14-4.52-1.78 0-3.07.88-3.61 2.28h-.14v-2.12h-3.17v12h3.32V17.4zM79.18 24.34h3.33v-3.81l.9-1.03 3.27 4.84h3.9l-4.68-6.8 4.45-5.2h-3.82l-3.84 4.55h-.18V8.34h-3.33v16zM101.17 12.94h3.24c-.05-2.85-2.39-4.82-5.95-4.82-3.51 0-6.08 1.94-6.07 4.84 0 2.36 1.66 3.72 4.36 4.36l1.75.44c1.74.42 2.7.92 2.72 2-.01 1.17-1.12 1.97-2.84 1.97-1.76 0-3.02-.81-3.13-2.41h-3.28c.09 3.46 2.57 5.25 6.45 5.25 3.9 0 6.2-1.87 6.2-4.8 0-2.66-2-4.08-4.79-4.7l-1.44-.35c-1.39-.32-2.55-.83-2.53-1.98 0-1.03.92-1.8 2.57-1.8 1.62 0 2.61.74 2.74 2zM112.7 24.57c3.2 0 5.2-1.87 5.36-4.63h-3.14c-.2 1.28-1.04 2-2.18 2-1.55 0-2.56-1.3-2.56-3.6 0-2.27 1.02-3.56 2.56-3.56 1.22 0 2 .8 2.18 2h3.14c-.14-2.78-2.24-4.6-5.37-4.6-3.64 0-5.9 2.53-5.9 6.2 0 3.66 2.22 6.2 5.91 6.2zM124.06 24.57c1.77 0 2.92-.78 3.5-1.9h.1v1.67h3.15v-8.1c0-2.85-2.42-4.06-5.09-4.06-2.88 0-4.77 1.38-5.23 3.57l3.08.25c.23-.8.94-1.39 2.13-1.39 1.14 0 1.79.57 1.79 1.56v.04c0 .78-.82.88-2.91 1.08-2.38.22-4.5 1.02-4.5 3.7 0 2.37 1.69 3.58 3.98 3.58zm.95-2.3c-1.02 0-1.76-.48-1.76-1.4 0-.93.78-1.39 1.95-1.55a8 8 0 002.3-.54v1.27c0 1.26-1.03 2.22-2.5 2.22zM137.16 17.4c.01-1.54.93-2.45 2.28-2.45 1.33 0 2.14.87 2.13 2.34v7.05h3.33V16.7c0-2.8-1.64-4.52-4.14-4.52-1.78 0-3.07.88-3.61 2.28H137v-2.12h-3.17v12h3.32V17.4z"/><path fill="url(#paint1_linear)" d="M44 24.34h3.38v-5.19h2.85c3.68 0 5.82-2.2 5.82-5.39 0-3.18-2.1-5.42-5.74-5.42H44v16zm3.38-7.9v-5.33h2.28c1.96 0 2.9 1.06 2.9 2.65 0 1.59-.94 2.68-2.88 2.68h-2.3z"/><path fill="url(#paint2_linear)" d="M58.62 24.34h3.33v-12h-3.33v12zm1.67-13.55c1 0 1.8-.75 1.8-1.68 0-.93-.8-1.68-1.8-1.68-.98 0-1.8.75-1.8 1.68 0 .93.82 1.68 1.8 1.68z"/><path fill="url(#paint3_linear)" d="M68.38 17.4c.01-1.54.93-2.45 2.28-2.45 1.33 0 2.14.87 2.13 2.34v7.05h3.33V16.7c0-2.8-1.64-4.52-4.14-4.52-1.78 0-3.07.88-3.61 2.28h-.14v-2.12h-3.17v12h3.32V17.4z"/><path fill="url(#paint4_linear)" d="M79.18 24.34h3.33v-3.81l.9-1.03 3.27 4.84h3.9l-4.68-6.8 4.45-5.2h-3.82l-3.84 4.55h-.18V8.34h-3.33v16z"/><defs><linearGradient id="paint0_linear" x1="2.51" x2="24.11" y1="16" y2="16" gradientUnits="userSpaceOnUse"><stop stop-color="#11B4F5"/><stop offset=".27" stop-color="#644AD4"/><stop offset=".61" stop-color="#E340A0"/><stop offset=".76" stop-color="#FF4282"/><stop offset=".93" stop-color="#F14B66"/></linearGradient><linearGradient id="paint1_linear" x1="24.1" x2="93.26" y1="15.88" y2="15.88" gradientUnits="userSpaceOnUse"><stop stop-color="#11B4F5"/><stop offset=".27" stop-color="#644AD4"/><stop offset=".61" stop-color="#E340A0"/><stop offset=".76" stop-color="#FF4282"/><stop offset=".93" stop-color="#F14B66"/></linearGradient><linearGradient id="paint2_linear" x1="24.1" x2="93.26" y1="15.88" y2="15.88" gradientUnits="userSpaceOnUse"><stop stop-color="#11B4F5"/><stop offset=".27" stop-color="#644AD4"/><stop offset=".61" stop-color="#E340A0"/><stop offset=".76" stop-color="#FF4282"/><stop offset=".93" stop-color="#F14B66"/></linearGradient><linearGradient id="paint3_linear" x1="24.1" x2="93.26" y1="15.88" y2="15.88" gradientUnits="userSpaceOnUse"><stop stop-color="#11B4F5"/><stop offset=".27" stop-color="#644AD4"/><stop offset=".61" stop-color="#E340A0"/><stop offset=".76" stop-color="#FF4282"/><stop offset=".93" stop-color="#F14B66"/></linearGradient><linearGradient id="paint4_linear" x1="24.1" x2="93.26" y1="15.88" y2="15.88" gradientUnits="userSpaceOnUse"><stop stop-color="#11B4F5"/><stop offset=".27" stop-color="#644AD4"/><stop offset=".61" stop-color="#E340A0"/><stop offset=".76" stop-color="#FF4282"/><stop offset=".93" stop-color="#F14B66"/></linearGradient></defs></svg>