<svg xmlns="http://www.w3.org/2000/svg" width="16" height="16" fill="none" viewBox="0 0 16 16"><path fill="#633001" fill-rule="evenodd" d="M3.56 3.21A1.87 1.87 0 015.38 1a1.9 1.9 0 011.88 1.87v2.27H8.8V2.87A1.9 1.9 0 0110.67 1a1.87 1.87 0 011.83 2.21l-.52 2.66C13.7 6.61 15 7.91 15 9.56v.96c0 1.36-.91 2.5-2.16 3.23A9.14 9.14 0 018 15a9.14 9.14 0 01-4.84-1.25C1.91 13.02 1 11.88 1 10.52v-.96C1 7.9 2.3 6.6 4.02 5.87l-.46-2.66zm7.8 3.06l.57-3.12c.17-.79-.46-1.53-1.26-1.53-.74 0-1.3.57-1.3 1.3v2.9c-.17 0-.4-.06-.57-.06h-.74c-.29 0-.52 0-.8.06-.17 0-.4.05-.57.05V2.98c0-.73-.57-1.3-1.3-1.3-.8 0-1.43.74-1.26 1.53l.57 3.17c-1.82.68-3.07 1.93-3.07 3.35v.96c0 2.16 2.84 3.91 6.37 3.91 3.53 0 6.37-1.75 6.37-3.9v-.97c.06-1.53-1.2-2.78-3.01-3.46z" clip-rule="evenodd"/><path fill="#FEDC90" d="M14.43 10.58c0 2.15-2.84 3.91-6.37 3.91-3.53 0-6.38-1.76-6.38-3.91v-.96h12.8v.96h-.05z"/><path fill="#D1884F" fill-rule="evenodd" d="M4.13 3.1c-.17-.8.46-1.53 1.25-1.53.74 0 1.31.56 1.31 1.3v2.95c.46-.06.91-.12 1.37-.12.45 0 .9.06 1.3.06V2.87c0-.74.57-1.3 1.31-1.3.8 0 1.43.73 1.26 1.53l-.57 3.11c1.88.68 3.13 1.93 3.13 3.35 0 2.15-2.85 3.91-6.38 3.91-3.52 0-6.37-1.76-6.37-3.91 0-1.42 1.25-2.67 3.07-3.35L4.13 3.1z" clip-rule="evenodd"/><path fill="#633001" d="M6.3 9.33c0 .57-.35 1.08-.69 1.08-.34 0-.68-.45-.68-1.08 0-.56.34-1.07.68-1.07s.68.45.68 1.07zM11.19 9.33c0 .57-.34 1.08-.69 1.08-.4 0-.68-.45-.68-1.08 0-.56.34-1.07.68-1.07.35 0 .69.45.69 1.07z"/></svg>