<svg xmlns="http://www.w3.org/2000/svg" width="20" height="20" fill="none" viewBox="0 0 20 20"><path fill="#38BDF8" d="M17.15 6.49l.01.46A10.2 10.2 0 016.66 17c-2.09 0-4.03-.58-5.66-1.59a7.96 7.96 0 005.47-1.46 3.68 3.68 0 01-3.45-2.45 4.07 4.07 0 001.67-.07 3.58 3.58 0 01-2.96-3.46v-.05c.5.26 1.06.43 1.67.45a3.5 3.5 0 01-1.65-2.94c0-.66.19-1.26.5-1.78a10.65 10.65 0 007.61 3.7A3.61 3.61 0 0113.46 3c1.06-.01 2.02.42 2.7 1.1a7.46 7.46 0 002.34-.85c-.28.82-.86 1.51-1.62 1.95A7.66 7.66 0 0019 4.66c-.5.7-1.13 1.33-1.85 1.83z"/></svg>